<svg xmlns="http://www.w3.org/2000/svg" viewBox="0 0 1200 560" role="img" aria-labelledby="medicao-parede-desktop-title medicao-parede-desktop-desc" font-family="Archivo Var, Arial, Helvetica, sans-serif" fill="#071a31">
<title id="medicao-parede-desktop-title">Prancha P3 · Mesma parede, quatro números · exemplo demonstrativo</title>
<desc id="medicao-parede-desktop-desc">Três barras proporcionais: executado declarado 120 m², medido no boletim 90 m², evidenciado por fotos datadas 80 m². Régua do critério contratual: área de projeção da parede. Faixas anotadas: diferença medido × executado de 30 m² e lacuna de prova de 10 m². Premissas sintéticas; exemplo demonstrativo, sem obra de cliente. Procedência: data/demonstrative/plates/medicao-parede.v1.json.</desc>
<rect x="0" y="0" width="1200" height="560" fill="#ffffff"/>
<rect x="8" y="8" width="1184" height="544" fill="#ffffff" stroke="#dfe4e6"/>
<text x="28" y="40" font-size="16" font-weight="650">Mesma parede, quatro números: executado, medido, evidenciado e o critério contratual</text>
<text x="1172" y="40" font-size="11" fill="#5d6a7a" text-anchor="end">Dados demonstrativos · revisão R00</text>
<defs><pattern id="medicao-parede-d-h5d6a" width="6" height="6" patternUnits="userSpaceOnUse" patternTransform="rotate(45)"><path d="M0 0V6" stroke="#5d6a7a" stroke-width="0.5"/></pattern></defs>
<text x="28" y="72" font-size="12" font-weight="650">Alvenaria do período · premissas sintéticas · áreas em m² · o ateste permanece com o órgão contratante</text>
<rect x="870" y="100" width="180" height="204" fill="#ced62a" fill-opacity=".35"/>
<rect x="810" y="100" width="60" height="204" fill="#ced62a" fill-opacity=".35"/>
<rect x="330" y="110" width="720" height="44" fill="url(#medicao-parede-d-h5d6a)" stroke="#071a31" stroke-width="1.2"/>
<text x="310" y="130" font-size="12" font-weight="650" text-anchor="end">Executado declarado</text>
<text x="310" y="146" font-size="11" fill="#5d6a7a" text-anchor="end">Alvenaria declarada como executada no período</text>
<text x="1058" y="137" font-size="12" font-weight="650">120 m²</text>
<rect x="330" y="180" width="540" height="44" fill="#f3f4f5" stroke="#071a31" stroke-width="1.2"/>
<text x="310" y="200" font-size="12" font-weight="650" text-anchor="end">Medido no boletim</text>
<text x="310" y="216" font-size="11" fill="#5d6a7a" text-anchor="end">Boletim de medição do período</text>
<text x="878" y="207" font-size="12" font-weight="650">90 m²</text>
<rect x="330" y="250" width="480" height="44" fill="#2d6f2d"/>
<text x="310" y="270" font-size="12" font-weight="650" text-anchor="end">Evidenciado por fotos datadas</text>
<text x="310" y="286" font-size="11" fill="#5d6a7a" text-anchor="end">Fotos contemporâneas com data e local</text>
<text x="818" y="277" font-size="12" font-weight="650">80 m²</text>
<line x1="810" y1="100" x2="810" y2="304" stroke="#5d6a7a" stroke-width="0.6" stroke-dasharray="4 3"/>
<line x1="870" y1="100" x2="870" y2="304" stroke="#5d6a7a" stroke-width="0.6" stroke-dasharray="4 3"/>
<line x1="1050" y1="100" x2="1050" y2="304" stroke="#5d6a7a" stroke-width="0.6" stroke-dasharray="4 3"/>
<g stroke="#5d6a7a" stroke-width="0.6" fill="#5d6a7a"><line x1="870" y1="320" x2="1050" y2="320"/><path d="M867 323L873 317"/><path d="M1047 323L1053 317"/><text x="960" y="333" font-size="11" text-anchor="middle">30 m²</text><line x1="810" y1="320" x2="870" y2="320"/><path d="M807 323L813 317"/><path d="M867 323L873 317"/><text x="840" y="333" font-size="11" text-anchor="middle">10 m²</text></g>
<line x1="330" y1="364" x2="1050" y2="364" stroke="#071a31" stroke-width="1.2"/>
<line x1="330" y1="364" x2="330" y2="370" stroke="#071a31" stroke-width="0.6"/>
<text x="330" y="384" font-size="11" fill="#5d6a7a" text-anchor="middle">0</text>
<line x1="450" y1="364" x2="450" y2="370" stroke="#071a31" stroke-width="0.6"/>
<text x="450" y="384" font-size="11" fill="#5d6a7a" text-anchor="middle">20</text>
<line x1="570" y1="364" x2="570" y2="370" stroke="#071a31" stroke-width="0.6"/>
<text x="570" y="384" font-size="11" fill="#5d6a7a" text-anchor="middle">40</text>
<line x1="690" y1="364" x2="690" y2="370" stroke="#071a31" stroke-width="0.6"/>
<text x="690" y="384" font-size="11" fill="#5d6a7a" text-anchor="middle">60</text>
<line x1="810" y1="364" x2="810" y2="370" stroke="#071a31" stroke-width="0.6"/>
<text x="810" y="384" font-size="11" fill="#5d6a7a" text-anchor="middle">80</text>
<line x1="930" y1="364" x2="930" y2="370" stroke="#071a31" stroke-width="0.6"/>
<text x="930" y="384" font-size="11" fill="#5d6a7a" text-anchor="middle">100</text>
<line x1="1050" y1="364" x2="1050" y2="370" stroke="#071a31" stroke-width="0.6"/>
<text x="1050" y="384" font-size="11" fill="#5d6a7a" text-anchor="middle">120 m²</text>
<text x="330" y="404" font-size="12" font-weight="650">Régua · critério contratual: o contrato manda medir a área de projeção da parede</text>
<g stroke="#5d6a7a" stroke-width="0.6"><line x1="960" y1="85" x2="960" y2="100"/><circle cx="960" cy="100" r="1.6" fill="#5d6a7a"/></g>
<g transform="translate(960 74)"><circle r="11" fill="#071a31"/><text y="4" text-anchor="middle" font-size="11" font-weight="700" fill="#ffffff">1</text></g>
<g stroke="#5d6a7a" stroke-width="0.6"><line x1="809.2" y1="80" x2="840" y2="100"/><circle cx="840" cy="100" r="1.6" fill="#5d6a7a"/></g>
<g transform="translate(800 74)"><circle r="11" fill="#071a31"/><text y="4" text-anchor="middle" font-size="11" font-weight="700" fill="#ffffff">2</text></g>
<g stroke="#5d6a7a" stroke-width="0.6"><line x1="307" y1="364" x2="328" y2="364"/><circle cx="328" cy="364" r="1.6" fill="#5d6a7a"/></g>
<g transform="translate(296 364)"><circle r="11" fill="#071a31"/><text y="4" text-anchor="middle" font-size="11" font-weight="700" fill="#ffffff">3</text></g>
<text x="28" y="430" font-size="12" font-weight="650">Chamadas</text><text x="28" y="448" font-size="11"><tspan font-weight="700">1</tspan><tspan x="44">Diferença medido × executado: 120 − 90 = 30 m². Não é direito automático: o dossiê registra os dois números e o critério.</tspan></text><text x="28" y="466" font-size="11"><tspan font-weight="700">2</tspan><tspan x="44">Lacuna de prova: 90 medidos − 80 evidenciados por fotos datadas = 10 m² sem prova contemporânea.</tspan></text><text x="28" y="484" font-size="11"><tspan font-weight="700">3</tspan><tspan x="44">Critério contratual: É a régua contratual, não uma quarta medição. O órgão contratante continua responsável pelo ateste.</tspan></text>
<g id="medicao-parede-d-carimbo"><rect x="8" y="524" width="1184" height="28" fill="#ffffff" stroke="#dfe4e6"/><line x1="402.7" y1="524" x2="402.7" y2="552" stroke="#dfe4e6"/><line x1="797.3" y1="524" x2="797.3" y2="552" stroke="#dfe4e6"/><text x="16" y="542" font-size="11" fill="#5d6a7a">P3 · medicao-parede · rev. R00</text><text x="410.7" y="542" font-size="11" fill="#5d6a7a">Barras proporcionais à área em m²</text><text x="805.3" y="542" font-size="11" fill="#5d6a7a">Exemplo demonstrativo · sem obra de cliente</text></g>
</svg>
