<svg xmlns="http://www.w3.org/2000/svg" viewBox="0 0 1200 620" role="img" aria-labelledby="pericia-fachada-desktop-title pericia-fachada-desktop-desc" font-family="Archivo Var, Arial, Helvetica, sans-serif" fill="#071a31">
<title id="pericia-fachada-desktop-title">Prancha PE · Mapa de manifestações na fachada leste: quesito, evidência e conclusão delimitada · exemplo demonstrativo</title>
<desc id="pericia-fachada-desktop-desc">Elevação da fachada leste de 12,00 por 9,00 m com as quatro manifestações M-01 a M-04 e três quesitos: Q-01 sobre as fissuras M-01 e M-04, Q-02 sobre a mancha M-02, Q-03 sobre o desplacamento M-03, cada um com a evidência disponível e a conclusão delimitada ao que a evidência sustenta. O laudo é do perito do juízo. Exemplo demonstrativo. Procedência: data/demonstrative/plates/inspecao-fachada.v1.json.</desc>
<rect x="0" y="0" width="1200" height="620" fill="#ffffff"/>
<rect x="8" y="8" width="1184" height="604" fill="#ffffff" stroke="#dfe4e6"/>
<text x="28" y="40" font-size="16" font-weight="650">Assistência técnica: o mesmo mapa, agora com quesito, evidência e conclusão delimitada</text>
<text x="1172" y="40" font-size="11" fill="#5d6a7a" text-anchor="end">Dados demonstrativos · revisão R00</text>
<text x="100" y="80" font-size="12" font-weight="650">Elevação · fachada leste FA-L · o mesmo mapa lido como evidência da parte</text>
<rect x="110" y="140" width="480" height="360" fill="#ffffff" stroke="#071a31" stroke-width="2"/><line x1="100" y1="500" x2="600" y2="500" stroke="#071a31" stroke-width="2"/><line x1="110" y1="380" x2="590" y2="380" stroke="#5d6a7a" stroke-width="0.6" stroke-dasharray="6 3"/><line x1="110" y1="260" x2="590" y2="260" stroke="#5d6a7a" stroke-width="0.6" stroke-dasharray="6 3"/><rect x="190" y="408" width="48" height="48" fill="#f3f4f5" stroke="#071a31" stroke-width="1.2"/><text x="214" y="405" font-size="11" fill="#5d6a7a" text-anchor="middle">J-01</text><rect x="326" y="408" width="48" height="48" fill="#f3f4f5" stroke="#071a31" stroke-width="1.2"/><text x="350" y="405" font-size="11" fill="#5d6a7a" text-anchor="middle">J-02</text><rect x="462" y="408" width="48" height="48" fill="#f3f4f5" stroke="#071a31" stroke-width="1.2"/><text x="486" y="405" font-size="11" fill="#5d6a7a" text-anchor="middle">J-03</text><rect x="190" y="288" width="48" height="48" fill="#f3f4f5" stroke="#071a31" stroke-width="1.2"/><text x="214" y="285" font-size="11" fill="#5d6a7a" text-anchor="middle">J-04</text><rect x="326" y="288" width="48" height="48" fill="#f3f4f5" stroke="#071a31" stroke-width="1.2"/><text x="350" y="285" font-size="11" fill="#5d6a7a" text-anchor="middle">J-05</text><rect x="462" y="288" width="48" height="48" fill="#f3f4f5" stroke="#071a31" stroke-width="1.2"/><text x="486" y="285" font-size="11" fill="#5d6a7a" text-anchor="middle">J-06</text><rect x="190" y="168" width="48" height="48" fill="#f3f4f5" stroke="#071a31" stroke-width="1.2"/><text x="214" y="165" font-size="11" fill="#5d6a7a" text-anchor="middle">J-07</text><rect x="326" y="168" width="48" height="48" fill="#f3f4f5" stroke="#071a31" stroke-width="1.2"/><text x="350" y="165" font-size="11" fill="#5d6a7a" text-anchor="middle">J-08</text><rect x="462" y="168" width="48" height="48" fill="#f3f4f5" stroke="#071a31" stroke-width="1.2"/><text x="486" y="165" font-size="11" fill="#5d6a7a" text-anchor="middle">J-09</text><line x1="134" y1="140" x2="134" y2="126" stroke="#5d6a7a" stroke-width="0.6"/><text x="134" y="122" font-size="12" fill="#5d6a7a" font-weight="650" text-anchor="middle">A</text><line x1="350" y1="140" x2="350" y2="126" stroke="#5d6a7a" stroke-width="0.6"/><text x="350" y="122" font-size="12" fill="#5d6a7a" font-weight="650" text-anchor="middle">B</text><line x1="566" y1="140" x2="566" y2="126" stroke="#5d6a7a" stroke-width="0.6"/><text x="566" y="122" font-size="12" fill="#5d6a7a" font-weight="650" text-anchor="middle">C</text><text x="584" y="494" font-size="11" fill="#5d6a7a" text-anchor="end">pav. 1</text><text x="584" y="374" font-size="11" fill="#5d6a7a" text-anchor="end">pav. 2</text><text x="584" y="254" font-size="11" fill="#5d6a7a" text-anchor="end">pav. 3</text><path d="M386 364l10.2 -10.2l1.7 0.7l11.9 -12.9l10.2 -11.5" fill="none" stroke="#2d6f2d" stroke-width="2"/><g stroke="#5d6a7a" stroke-width="0.6"><line x1="427.7" y1="331" x2="403" y2="347"/><circle cx="403" cy="347" r="1.6" fill="#5d6a7a"/></g><g transform="translate(437 325)"><circle r="11" fill="#071a31"/><text y="4" text-anchor="middle" font-size="11" font-weight="700" fill="#ffffff">1</text></g><ellipse cx="214" cy="474" rx="32" ry="14" fill="#ced62a" fill-opacity=".35" stroke="#2d6f2d" stroke-width="1.2" stroke-dasharray="4 3"/><g stroke="#5d6a7a" stroke-width="0.6"><line x1="270.8" y1="458" x2="246" y2="474"/><circle cx="246" cy="474" r="1.6" fill="#5d6a7a"/></g><g transform="translate(280 452)"><circle r="11" fill="#071a31"/><text y="4" text-anchor="middle" font-size="11" font-weight="700" fill="#ffffff">2</text></g><rect x="398" y="152" width="36" height="16" fill="#ced62a" fill-opacity=".35" stroke="#2d6f2d" stroke-width="1.2"/><g stroke="#5d6a7a" stroke-width="0.6"><line x1="458.8" y1="144" x2="434" y2="160"/><circle cx="434" cy="160" r="1.6" fill="#5d6a7a"/></g><g transform="translate(468 138)"><circle r="11" fill="#071a31"/><text y="4" text-anchor="middle" font-size="11" font-weight="700" fill="#ffffff">3</text></g><path d="M134 260h44.8l6.4 -1.5h38.4l6.4 1.5h32" fill="none" stroke="#2d6f2d" stroke-width="2"/><g stroke="#5d6a7a" stroke-width="0.6"><line x1="222.8" y1="244" x2="198" y2="260"/><circle cx="198" cy="260" r="1.6" fill="#5d6a7a"/></g><g transform="translate(232 238)"><circle r="11" fill="#071a31"/><text y="4" text-anchor="middle" font-size="11" font-weight="700" fill="#ffffff">4</text></g>
<g stroke="#5d6a7a" stroke-width="0.6" fill="#5d6a7a"><line x1="110" y1="526" x2="590" y2="526"/><path d="M107 529L113 523"/><path d="M587 529L593 523"/><line x1="110" y1="500" x2="110" y2="528"/><line x1="590" y1="500" x2="590" y2="528"/><text x="350" y="539" font-size="11" text-anchor="middle">12,00 m</text><path d="M593 500L588 495H598Z" fill="none"/><text x="602" y="504" font-size="11" text-anchor="start">0,00</text><path d="M593 380L588 375H598Z" fill="none"/><text x="602" y="384" font-size="11" text-anchor="start">3,00</text><path d="M593 260L588 255H598Z" fill="none"/><text x="602" y="264" font-size="11" text-anchor="start">6,00</text><path d="M593 140L588 135H598Z" fill="none"/><text x="602" y="144" font-size="11" text-anchor="start">9,00</text><line x1="88" y1="140" x2="88" y2="500"/><path d="M85 143L91 137"/><path d="M85 503L91 497"/><line x1="110" y1="140" x2="86" y2="140"/><line x1="110" y1="500" x2="86" y2="500"/><text x="84" y="320" font-size="11" text-anchor="middle" transform="rotate(-90 84 320)">9,00 m</text></g>
<text x="680" y="128" font-size="12" font-weight="650">Quesito · evidência · conclusão delimitada</text><text x="680" y="145" font-size="10.5">Q-01 · itens M-01, M-04</text><text x="680" y="162" font-size="10.5" fill="#5d6a7a">Quesito: As fissuras M-01 e M-04 têm geometria compatível com movimentação da estrutura?</text><text x="680" y="179" font-size="10.5" fill="#5d6a7a">Evidência: Fotos datadas; comprimento e abertura medidos; sem monitoramento.</text><text x="680" y="196" font-size="10.5">Conclusão delimitada: Geometria registrada. Origem não afirmada sem monitoramento e sem o projeto.</text><text x="680" y="213" font-size="10.5">Q-02 · itens M-02</text><text x="680" y="230" font-size="10.5" fill="#5d6a7a">Quesito: A mancha M-02 decorre de infiltração pela fachada ou por instalação interna?</text><text x="680" y="247" font-size="10.5" fill="#5d6a7a">Evidência: Foto datada e dimensão; sem ensaio de umidade.</text><text x="680" y="264" font-size="10.5">Conclusão delimitada: Umidade registrada. Fonte não afirmada sem ensaio ou abertura.</text><text x="680" y="281" font-size="10.5">Q-03 · itens M-03</text><text x="680" y="298" font-size="10.5" fill="#5d6a7a">Quesito: O desplacamento M-03 indica falha de aderência generalizada?</text><text x="680" y="315" font-size="10.5" fill="#5d6a7a">Evidência: Foto datada e área medida; percussão não realizada ao redor.</text><text x="680" y="332" font-size="10.5">Conclusão delimitada: Área registrada. Extensão não afirmada sem percussão.</text><text x="680" y="349" font-size="10.5" fill="#5d6a7a">Assistente da parte: organiza a evidência e formula o quesito.</text><text x="680" y="366" font-size="10.5">Perito do juízo: nomeado pelo juiz, produz o laudo. Advogado: tese e peças.</text>
<g id="pericia-fachada-d-carimbo"><rect x="8" y="584" width="1184" height="28" fill="#ffffff" stroke="#dfe4e6"/><line x1="402.7" y1="584" x2="402.7" y2="612" stroke="#dfe4e6"/><line x1="797.3" y1="584" x2="797.3" y2="612" stroke="#dfe4e6"/><text x="16" y="602" font-size="11" fill="#5d6a7a">PE · pericia-fachada · rev. R00</text><text x="410.7" y="602" font-size="11" fill="#5d6a7a">Escala indicativa · cotas em m</text><text x="805.3" y="602" font-size="11" fill="#5d6a7a">Exemplo demonstrativo</text></g>
</svg>
