<svg xmlns="http://www.w3.org/2000/svg" viewBox="0 0 360 420" role="img" aria-labelledby="sst-canteiro-mobile-title sst-canteiro-mobile-desc" font-family="Archivo Var, Arial, Helvetica, sans-serif" fill="#071a31">
<title id="sst-canteiro-mobile-title">Prancha PF (móvel) · Planta do canteiro: proteções coletivas conferidas · exemplo demonstrativo</title>
<desc id="sst-canteiro-mobile-desc">Planta de um canteiro de 36,00 por 24,00 m com quatro proteções coletivas: guarda-corpo conferido, bandeja pendente, isolamento da grua conferido e torre de acesso conferida; 3 conferidos e 1 pendente. Exemplo demonstrativo, sem obra de cliente. Procedência: data/demonstrative/plates/sst-canteiro.v1.json.</desc>
<rect x="0" y="0" width="360" height="420" fill="#ffffff"/>
<rect x="8" y="8" width="344" height="404" fill="#ffffff" stroke="#dfe4e6"/>
<text x="28" y="40" font-size="16" font-weight="650">Canteiro CT-01 · proteções conferidas</text>
<defs><pattern id="sst-canteiro-m-h5d6a" width="6" height="6" patternUnits="userSpaceOnUse" patternTransform="rotate(45)"><path d="M0 0V6" stroke="#5d6a7a" stroke-width="0.5"/></pattern></defs>
<rect x="48" y="72" width="230.4" height="153.6" fill="#ffffff" stroke="#071a31" stroke-width="2"/><rect x="99.2" y="200" width="115.2" height="12.8" fill="#f3f4f5" stroke="#5d6a7a" stroke-width="0.6"/><rect x="99.2" y="110.4" width="115.2" height="76.8" fill="url(#sst-canteiro-m-h5d6a)" stroke="#071a31" stroke-width="1.2"/><path d="M99.2 187.2V110.4H214.4V187.2" fill="none" stroke="#2d6f2d" stroke-width="2"/><rect x="99.2" y="185.2" width="115.2" height="5.1" fill="none" stroke="#5d6a7a" stroke-width="1.2" stroke-dasharray="5 3"/><circle cx="246.4" cy="148.8" r="57.6" fill="none" stroke="#2d6f2d" stroke-width="1.2" stroke-dasharray="5 3"/><circle cx="246.4" cy="148.8" r="3.2" fill="#071a31"/><rect x="214.4" y="174.4" width="12.8" height="12.8" fill="#ffffff" stroke="#2d6f2d" stroke-width="2"/><g stroke="#5d6a7a" stroke-width="0.6"><line x1="230" y1="120.9" x2="214.4" y2="129.6"/><circle cx="214.4" cy="129.6" r="1.6" fill="#5d6a7a"/></g><g transform="translate(239.6 115.6)"><circle r="11" fill="#071a31"/><text y="4.5" text-anchor="middle" font-size="12.5" font-weight="700" fill="#ffffff">1</text></g><g stroke="#5d6a7a" stroke-width="0.6"><line x1="86.4" y1="189.8" x2="99.2" y2="189.8"/><circle cx="99.2" cy="189.8" r="1.6" fill="#5d6a7a"/></g><g transform="translate(75.4 189.8)"><circle r="11" fill="#071a31"/><text y="4.5" text-anchor="middle" font-size="12.5" font-weight="700" fill="#ffffff">2</text></g>
<g stroke="#5d6a7a" stroke-width="0.6" fill="#5d6a7a"><line x1="48" y1="245.6" x2="278.4" y2="245.6"/><path d="M45 248.6L51 242.6"/><path d="M275.4 248.6L281.4 242.6"/><line x1="48" y1="225.6" x2="48" y2="247.6"/><line x1="278.4" y1="225.6" x2="278.4" y2="247.6"/><text x="163.2" y="260.1" font-size="12.5" text-anchor="middle">36,00 m</text><line x1="34" y1="72" x2="34" y2="225.6"/><path d="M31 75L37 69"/><path d="M31 228.6L37 222.6"/><line x1="48" y1="72" x2="32" y2="72"/><line x1="48" y1="225.6" x2="32" y2="225.6"/><text x="30" y="148.8" font-size="12.5" text-anchor="middle" transform="rotate(-90 30 148.8)">24,00 m</text></g>
<rect x="20" y="279" width="8" height="8" fill="#2d6f2d"/>
<text x="34" y="286" font-size="12.5">1 Guarda-corpo de periferia · conferido</text>
<rect x="20" y="295" width="8" height="8" fill="none" stroke="#071a31" stroke-width="1.2"/>
<text x="34" y="302" font-size="12.5" fill="#5d6a7a">2 Bandeja de proteção · pendente</text>
<rect x="20" y="311" width="8" height="8" fill="#2d6f2d"/>
<text x="34" y="318" font-size="12.5">3 Isolamento da área de içamento · conferido</text>
<rect x="20" y="327" width="8" height="8" fill="#2d6f2d"/>
<text x="34" y="334" font-size="12.5">4 Torre de acesso com guarda-corpo · conferido</text>
<text x="20" y="356" font-size="12.5" font-weight="650">3 conferidos · 1 pendente · não é PGR nem laudo</text>
<g id="sst-canteiro-m-carimbo"><rect x="8" y="384" width="344" height="28" fill="#ffffff" stroke="#dfe4e6"/><line x1="72" y1="384" x2="72" y2="412" stroke="#dfe4e6"/><line x1="192" y1="384" x2="192" y2="412" stroke="#dfe4e6"/><text x="16" y="395" font-size="12.5" fill="#5d6a7a">PF-M</text><text x="16" y="408" font-size="12.5" fill="#5d6a7a">rev. R00</text><text x="80" y="395" font-size="12.5" fill="#5d6a7a">Escala indicativa</text><text x="80" y="408" font-size="12.5" fill="#5d6a7a">cotas em m</text><text x="200" y="395" font-size="12.5" fill="#5d6a7a">Exemplo demonstrativo</text><text x="200" y="408" font-size="12.5" fill="#5d6a7a">sem obra de cliente</text></g>
</svg>
