<svg xmlns="http://www.w3.org/2000/svg" viewBox="0 0 760 520"><style>.g{stroke:#b5c5ca;stroke-width:1}.l{fill:none;stroke:#0d2b42;stroke-width:3}.a{fill:none;stroke:#d96b39;stroke-width:5}.t{font:700 15px Arial;fill:#0d2b42}.s{font:12px Arial;fill:#526873}</style><rect width="760" height="520" fill="#eaf0f2"/><g class="g"><path d="M40 40H720M40 100H720M40 160H720M40 220H720M40 280H720M40 340H720M40 400H720M40 460H720M80 25V495M200 25V495M320 25V495M440 25V495M560 25V495M680 25V495"/></g><path class="l" d="M112 112h164v94H112zM484 112h164v94H484zM112 318h164v94H112zM484 318h164v94H484z"/><circle cx="380" cy="260" r="82" fill="#fff" stroke="#d96b39" stroke-width="5"/><path class="a" d="M276 159l47 47M484 159l-47 47M276 365l47-47M484 365l-47-47"/><text class="t" x="145" y="150">ESTRUTURAS</text><text class="s" x="145" y="175">cargas · reservas</text><text class="t" x="525" y="150">INSTALAÇÕES</text><text class="s" x="514" y="175">rotas · demandas</text><text class="t" x="143" y="356">ARQUITETURA</text><text class="s" x="145" y="381">uso · espaço</text><text class="t" x="517" y="356">INFRAESTRUTURA</text><text class="s" x="517" y="381">cotas · conexões</text><text class="t" x="336" y="250">DECISÃO</text><text class="s" x="341" y="276">responsável</text><text class="s" x="348" y="295">+ versão</text></svg>
