<svg xmlns="http://www.w3.org/2000/svg" viewBox="0 0 960 600" role="img" aria-labelledby="load-path-title load-path-desc">
<title id="load-path-title">Do carregamento à fundação, com decisões identificadas.</title><desc id="load-path-desc">Pórtico conceitual com ações verticais e horizontais, caminho de cargas, fundações e pontos de decisão.</desc>
<defs><pattern id="grid-load-path" width="40" height="40" patternUnits="userSpaceOnUse"><path d="M40 0H0V40" fill="none" stroke="#dce4e7" stroke-width="1"/></pattern><marker id="arrow-load-path" viewBox="0 0 10 10" refX="8" refY="5" markerWidth="6" markerHeight="6" orient="auto-start-reverse"><path d="M0 0l10 5-10 5z" fill="#2d6f2d"/></marker><marker id="navy-arrow-load-path" viewBox="0 0 10 10" refX="8" refY="5" markerWidth="6" markerHeight="6" orient="auto-start-reverse"><path d="M0 0l10 5-10 5z" fill="#071a31"/></marker></defs>
<style>.n{fill:none;stroke:#071a31;stroke-width:3;stroke-linecap:round;stroke-linejoin:round}.g{fill:none;stroke:#2d6f2d;stroke-width:4;stroke-linecap:round;stroke-linejoin:round}.b{fill:none;stroke:#397f94;stroke-width:5;stroke-linecap:round;stroke-linejoin:round}.dash{fill:none;stroke:#71818b;stroke-width:2;stroke-dasharray:8 7}.thin{fill:none;stroke:#71818b;stroke-width:1.5}.panel{fill:#fff;stroke:#9babb2;stroke-width:2}.soft{fill:#e7efe7;stroke:#2d6f2d;stroke-width:2}.navy{fill:#071a31}.green{fill:#2d6f2d}.lime{fill:#c8df72}.t{font:700 16px Arial,sans-serif;fill:#071a31}.s{font:14px Arial,sans-serif;fill:#405563}.q{font:12px Arial,sans-serif;fill:#526873}.k{font:700 12px Arial,sans-serif;fill:#2d6f2d;letter-spacing:1.4px}.w{font:700 14px Arial,sans-serif;fill:#fff}.dim{font:12px Arial,sans-serif;fill:#2d6f2d}</style>
<rect width="960" height="600" fill="#f4f7f6"/><rect x="36" y="32" width="888" height="536" fill="url(#grid-load-path)" stroke="#bcc9ce"/>
<text class="k" x="64" y="66">DEMONSTRAÇÃO TÉCNICA · CAMINHO DE CARGAS</text><text class="s" x="64" y="94">Do carregamento à fundação, com decisões identificadas.</text><line x1="64" y1="108" x2="896" y2="108" stroke="#9babb2"/>

<path class="n" d="M180 206H754M220 206V438M465 206V438M710 206V438M154 438H776"/><path class="n" d="M180 206L220 166H710L754 206"/>
<g class="g" marker-end="url(#arrow-load-path)"><path d="M300 132V196"/><path d="M465 132V196"/><path d="M630 132V196"/></g><path class="g" d="M112 310H205" marker-end="url(#arrow-load-path)"/>
<path class="dash" d="M300 207V430M465 207V430M630 207V430"/><g fill="#fff" stroke="#071a31" stroke-width="2"><path d="M174 444l-42 68h176l-42-68z"/><path d="M419 444l-42 68h176l-42-68z"/><path d="M664 444l-42 68h176l-42-68z"/></g>
<rect class="soft" x="690" y="132" width="174" height="58"/><text class="t" x="708" y="157">D-01</text><text class="q" x="708" y="178">estabilidade lateral</text><rect class="panel" x="68" y="350" width="170" height="58"/><text class="t" x="86" y="375">D-02</text><text class="q" x="86" y="396">reação e fundação</text><text class="s" x="374" y="240">VIGA</text><text class="s" x="482" y="355">PILAR</text><text class="s" x="390" y="514">FUNDAÇÕES</text>
<text class="q" x="64" y="548">REPRESENTAÇÃO CONCEITUAL · SEM ESCALA</text></svg>