<svg xmlns="http://www.w3.org/2000/svg" viewBox="0 0 960 600" role="img" aria-labelledby="project-integration-title project-integration-desc">
<title id="project-integration-title">Uma passagem altera três referências de projeto.</title><desc id="project-integration-desc">Fluxo conceitual entre a origem de uma passagem de rede, a reserva estrutural, a zona técnica e o registro de revisão.</desc>
<defs><pattern id="grid-project-integration" width="40" height="40" patternUnits="userSpaceOnUse"><path d="M40 0H0V40" fill="none" stroke="#dce4e7" stroke-width="1"/></pattern><marker id="arrow-project-integration" viewBox="0 0 10 10" refX="8" refY="5" markerWidth="6" markerHeight="6" orient="auto-start-reverse"><path d="M0 0l10 5-10 5z" fill="#2d6f2d"/></marker><marker id="navy-arrow-project-integration" viewBox="0 0 10 10" refX="8" refY="5" markerWidth="6" markerHeight="6" orient="auto-start-reverse"><path d="M0 0l10 5-10 5z" fill="#071a31"/></marker></defs>
<style>.n{fill:none;stroke:#071a31;stroke-width:3;stroke-linecap:round;stroke-linejoin:round}.g{fill:none;stroke:#2d6f2d;stroke-width:4;stroke-linecap:round;stroke-linejoin:round}.b{fill:none;stroke:#397f94;stroke-width:5;stroke-linecap:round;stroke-linejoin:round}.dash{fill:none;stroke:#71818b;stroke-width:2;stroke-dasharray:8 7}.thin{fill:none;stroke:#71818b;stroke-width:1.5}.panel{fill:#fff;stroke:#9babb2;stroke-width:2}.soft{fill:#e7efe7;stroke:#2d6f2d;stroke-width:2}.navy{fill:#071a31}.green{fill:#2d6f2d}.lime{fill:#c8df72}.t{font:700 16px Arial,sans-serif;fill:#071a31}.s{font:14px Arial,sans-serif;fill:#405563}.q{font:12px Arial,sans-serif;fill:#526873}.k{font:700 12px Arial,sans-serif;fill:#2d6f2d;letter-spacing:1.4px}.w{font:700 14px Arial,sans-serif;fill:#fff}.dim{font:12px Arial,sans-serif;fill:#2d6f2d}</style>
<rect width="960" height="600" fill="#f4f7f6"/><rect x="36" y="32" width="888" height="536" fill="url(#grid-project-integration)" stroke="#bcc9ce"/>
<text class="k" x="64" y="66">DEMONSTRAÇÃO TÉCNICA · INTEGRAÇÃO DE DISCIPLINAS</text><text class="s" x="64" y="94">Uma passagem altera três referências de projeto.</text><line x1="64" y1="108" x2="896" y2="108" stroke="#9babb2"/>

<rect class="panel" x="64" y="142" width="205" height="92"/><text class="t" x="84" y="174">PASSAGEM DE REDE</text><text class="s" x="84" y="202">origem · instalações</text>
<path class="g" d="M269 188H350" marker-end="url(#arrow-project-integration)"/><rect class="soft" x="350" y="142" width="220" height="92"/><text class="t" x="373" y="174">RESERVA ESTRUTURAL</text><text class="s" x="373" y="202">posição · contorno · resposta</text>
<path class="g" d="M570 188H652" marker-end="url(#arrow-project-integration)"/><rect class="panel" x="652" y="142" width="244" height="92"/><text class="t" x="674" y="174">ZONA TÉCNICA</text><text class="s" x="674" y="202">rota · acesso · arquitetura</text>
<rect class="panel" x="118" y="292" width="724" height="184"/><text class="k" x="142" y="320">MATRIZ DE FECHAMENTO</text><path class="thin" d="M142 338H818M302 338V452M610 338V452M142 376H818M142 414H818M142 452H818"/>
<text class="q" x="158" y="363">DISCIPLINA</text><text class="q" x="324" y="363">RESPOSTA REGISTRADA</text><text class="q" x="632" y="363">VERSÃO</text><text class="t" x="158" y="402">Estruturas</text><text class="s" x="324" y="402">reserva aceita</text><text class="s" x="632" y="402">EST R08</text><text class="t" x="158" y="440">Instalações</text><text class="s" x="324" y="440">rota ajustada</text><text class="s" x="632" y="440">INS R11</text><circle class="green" cx="784" cy="396" r="8"/><circle class="green" cx="784" cy="434" r="8"/>
<text class="q" x="64" y="548">REPRESENTAÇÃO CONCEITUAL · SEM ESCALA</text></svg>