<svg xmlns="http://www.w3.org/2000/svg" viewBox="0 0 960 600" role="img" aria-labelledby="plumbing-riser-title plumbing-riser-desc">
<title id="plumbing-riser-title">A prumada liga aparelhos, ventilação, inspeção e saída.</title><desc id="plumbing-riser-desc">Corte conceitual de sistema hidrossanitário com aparelhos, ramais, prumada, ventilação acima da cobertura, inspeção e conexão externa.</desc>
<defs><pattern id="grid-plumbing-riser" width="40" height="40" patternUnits="userSpaceOnUse"><path d="M40 0H0V40" fill="none" stroke="#dce4e7" stroke-width="1"/></pattern><marker id="arrow-plumbing-riser" viewBox="0 0 10 10" refX="8" refY="5" markerWidth="6" markerHeight="6" orient="auto-start-reverse"><path d="M0 0l10 5-10 5z" fill="#2d6f2d"/></marker><marker id="navy-arrow-plumbing-riser" viewBox="0 0 10 10" refX="8" refY="5" markerWidth="6" markerHeight="6" orient="auto-start-reverse"><path d="M0 0l10 5-10 5z" fill="#071a31"/></marker></defs>
<style>.n{fill:none;stroke:#071a31;stroke-width:3;stroke-linecap:round;stroke-linejoin:round}.g{fill:none;stroke:#2d6f2d;stroke-width:4;stroke-linecap:round;stroke-linejoin:round}.b{fill:none;stroke:#397f94;stroke-width:5;stroke-linecap:round;stroke-linejoin:round}.dash{fill:none;stroke:#71818b;stroke-width:2;stroke-dasharray:8 7}.thin{fill:none;stroke:#71818b;stroke-width:1.5}.panel{fill:#fff;stroke:#9babb2;stroke-width:2}.soft{fill:#e7efe7;stroke:#2d6f2d;stroke-width:2}.navy{fill:#071a31}.green{fill:#2d6f2d}.lime{fill:#c8df72}.t{font:700 16px Arial,sans-serif;fill:#071a31}.s{font:14px Arial,sans-serif;fill:#405563}.q{font:12px Arial,sans-serif;fill:#526873}.k{font:700 12px Arial,sans-serif;fill:#2d6f2d;letter-spacing:1.4px}.w{font:700 14px Arial,sans-serif;fill:#fff}.dim{font:12px Arial,sans-serif;fill:#2d6f2d}</style>
<rect width="960" height="600" fill="#f4f7f6"/><rect x="36" y="32" width="888" height="536" fill="url(#grid-plumbing-riser)" stroke="#bcc9ce"/>
<text class="k" x="64" y="66">DEMONSTRAÇÃO TÉCNICA · REDE HIDROSSANITÁRIA</text><text class="s" x="64" y="94">A prumada liga aparelhos, ventilação, inspeção e saída.</text><line x1="64" y1="108" x2="896" y2="108" stroke="#9babb2"/>

<path class="n" d="M102 174H688M102 290H688M102 406H688M134 134V470M656 134V470"/><path class="b" d="M522 448V150M522 226H610M522 342H610"/><path class="g" d="M438 454V130M438 226H354M438 342H354"/><path class="g" d="M438 130V102"/><path class="n" d="M408 134l30-32 30 32"/><text class="q" x="462" y="116">ventilação acima da cobertura</text>
<g class="panel"><rect x="570" y="198" width="72" height="46"/><rect x="570" y="314" width="72" height="46"/><rect x="304" y="198" width="72" height="46"/><rect x="304" y="314" width="72" height="46"/></g><text class="q" x="582" y="226">aparelho</text><text class="q" x="582" y="342">aparelho</text><text class="q" x="316" y="226">aparelho</text><text class="q" x="316" y="342">aparelho</text><text class="t" x="532" y="388">ÁGUA</text><text class="t" x="380" y="388">ESGOTO</text>
<circle cx="438" cy="454" r="15" fill="#fff" stroke="#2d6f2d" stroke-width="4"/><text class="q" x="372" y="492">inspeção</text><path class="g" d="M438 454H812"/><path class="g" d="M650 438L812 454"/><rect class="soft" x="760" y="416" width="130" height="74"/><text class="t" x="778" y="446">CONEXÃO</text><text class="q" x="778" y="468">rede externa</text><path class="thin" d="M650 470H760"/><text class="dim" x="676" y="488">declive</text>
<text class="q" x="64" y="548">REPRESENTAÇÃO CONCEITUAL · SEM ESCALA</text></svg>